<?xml version="1.0" standalone="no"?>
<!DOCTYPE svg PUBLIC "-//W3C//DTD SVG 20010904//EN"
 "http://www.w3.org/TR/2001/REC-SVG-20010904/DTD/svg10.dtd">
<svg version="1.0" xmlns="http://www.w3.org/2000/svg"
 width="342.000000pt" height="342.000000pt" viewBox="0 0 342.000000 342.000000"
 preserveAspectRatio="xMidYMid meet">
<metadata>
Created by potrace 1.14, written by Peter Selinger 2001-2017
</metadata>
<g transform="translate(0.000000,342.000000) scale(0.100000,-0.100000)"
fill="#000000" stroke="none">
<path d="M1560 3409 c-359 -33 -703 -181 -977 -418 -282 -244 -487 -610 -554
-987 -30 -167 -30 -421 0 -588 82 -458 347 -866 731 -1121 443 -295 980 -369
1484 -204 129 42 383 168 378 188 -1 6 3 10 10 9 7 -2 12 12 13 35 1 20 -2 37
-7 37 -4 0 -37 -18 -73 -40 -255 -156 -556 -240 -858 -240 -644 1 -1234 390
-1488 981 -91 211 -131 408 -131 649 0 179 18 309 62 458 182 612 688 1053
1325 1153 102 16 378 16 475 0 226 -38 435 -113 620 -223 l76 -45 0 43 c0 29
-5 44 -13 44 -7 0 -13 4 -13 9 0 17 -263 143 -381 182 -209 68 -466 98 -679
78z"/>
<path d="M960 2611 c-98 -32 -169 -95 -213 -188 -27 -59 -29 -71 -25 -146 6
-109 41 -179 124 -248 l32 -26 -44 -101 c-23 -56 -55 -137 -70 -181 l-27 -81
23 -87 c32 -125 144 -442 193 -547 l41 -88 130 -63 c225 -108 530 -225 587
-225 58 0 438 148 620 241 86 44 99 54 121 97 49 90 196 507 220 623 11 55 10
61 -24 155 -20 55 -52 135 -71 180 l-35 81 29 17 c46 27 107 112 125 174 60
206 -81 407 -296 420 -105 6 -175 -22 -251 -97 l-56 -57 -124 53 c-68 29 -154
62 -191 74 l-68 21 -82 -28 c-46 -15 -128 -47 -183 -71 -55 -23 -104 -43 -109
-43 -4 0 -26 20 -48 44 -56 65 -132 99 -227 102 -42 2 -87 0 -101 -5z m896
-110 c54 -21 150 -62 213 -90 105 -48 122 -59 234 -164 l120 -112 67 -140 c88
-183 142 -320 142 -360 0 -58 -123 -411 -205 -588 l-41 -89 -110 -53 c-211
-100 -512 -215 -565 -215 -75 0 -639 235 -679 282 -30 37 -209 540 -227 639
-8 41 30 150 127 369 l60 135 122 118 c142 137 210 176 506 288 88 34 101 33
236 -20z"/>
<path d="M1340 1824 c-40 -25 -107 -122 -139 -204 -52 -130 -64 -220 -37 -285
30 -70 93 -39 207 103 147 182 162 226 109 319 -46 81 -87 100 -140 67z"/>
<path d="M1983 1813 c-50 -47 -86 -119 -79 -156 8 -45 69 -134 174 -257 116
-134 124 -140 162 -102 20 20 30 43 36 77 22 151 -135 465 -233 465 -20 0 -41
-10 -60 -27z"/>
<path d="M1615 1216 c-5 -2 -22 -7 -37 -10 -60 -14 -21 -89 72 -140 l51 -28
54 27 c62 30 115 76 115 99 0 32 -47 49 -148 52 -53 2 -101 2 -107 0z"/>
<path d="M1675 916 c-26 -19 -8 -39 31 -34 21 2 29 8 29 23 0 25 -33 31 -60
11z"/>
</g>
</svg>
